<svg enable-background="new 0 0 256 256" viewBox="0 0 256 256" xmlns="http://www.w3.org/2000/svg"><path d="m248 41.086v182c0 2.761-2.239 5-5 5h-230c-2.761 0-5-2.239-5-5v-182c0-2.761 2.239-5 5-5h67v11c0 2.761 2.239 5 5 5h86c2.761 0 5-2.239 5-5v-11h67c2.761 0 5 2.239 5 5z" fill="#13bf6d"/><path d="m237 219.586h-204c-1.381 0-2.5-1.119-2.5-2.5s1.119-2.5 2.5-2.5h201.5v-167.5c0-1.381 1.119-2.5 2.5-2.5s2.5 1.119 2.5 2.5v170c0 1.381-1.119 2.5-2.5 2.5zm-214 0h-4c-1.381 0-2.5-1.119-2.5-2.5s1.119-2.5 2.5-2.5h4c1.381 0 2.5 1.119 2.5 2.5s-1.119 2.5-2.5 2.5z" fill="#efefef"/><path d="m219 140.086h-54c-2.761 0-5-2.239-5-5v-22c0-2.761 2.239-5 5-5h54c2.761 0 5 2.239 5 5v22c0 2.762-2.239 5-5 5z" fill="#7d7b79"/><path d="m216 134.586h-34c-1.381 0-2.5-1.119-2.5-2.5s1.119-2.5 2.5-2.5h31.5v-13.5c0-1.381 1.119-2.5 2.5-2.5s2.5 1.119 2.5 2.5v16c0 1.381-1.119 2.5-2.5 2.5zm-44 0h-4c-1.381 0-2.5-1.119-2.5-2.5s1.119-2.5 2.5-2.5h4c1.381 0 2.5 1.119 2.5 2.5s-1.119 2.5-2.5 2.5z" fill="#efefef"/><g fill="#f0c020"><path d="m176 33.086v14c0 2.761-2.239 5-5 5h-86c-2.761 0-5-2.239-5-5v-14c0-2.761 2.239-5 5-5h86c2.761 0 5 2.239 5 5z"/><circle cx="120" cy="124.086" r="8"/><circle cx="88" cy="196.086" r="8"/><circle cx="64" cy="172.086" r="8"/><circle cx="48" cy="68.086" r="8"/><circle cx="184" cy="172.086" r="8"/><circle cx="88" cy="92.086" r="8"/><circle cx="184" cy="76.086" r="8"/><circle cx="152" cy="196.086" r="8"/></g><path d="m168 46.586h-6c-1.381 0-2.5-1.119-2.5-2.5s1.119-2.5 2.5-2.5h6c1.381 0 2.5 1.119 2.5 2.5s-1.119 2.5-2.5 2.5zm-16 0h-64c-1.381 0-2.5-1.119-2.5-2.5s1.119-2.5 2.5-2.5h64c1.381 0 2.5 1.119 2.5 2.5s-1.119 2.5-2.5 2.5z" fill="#f8e5b0"/><path d="m243 33.586h-64.5v-.5c0-4.13-3.37-7.5-7.5-7.5h-86c-4.13 0-7.5 3.37-7.5 7.5v.5h-64.5c-4.141 0-7.5 3.37-7.5 7.5v94.57c0 1.38 1.12 2.5 2.5 2.5s2.5-1.12 2.5-2.5v-9.07h35v21.5c0 1.381 1.119 2.5 2.5 2.5h37.5v35.314c-3.782.929-6.758 3.905-7.687 7.687h-67.313v-19h43.313c1.126 4.584 5.26 8 10.187 8 5.79 0 10.5-4.71 10.5-10.5s-4.71-10.5-10.5-10.5c-4.927 0-9.061 3.416-10.187 8h-43.313v-13.93c0-1.38-1.12-2.5-2.5-2.5s-2.5 1.12-2.5 2.5v67.43c0 4.13 3.359 7.5 7.5 7.5h230c4.13 0 7.5-3.37 7.5-7.5v-182c0-4.131-3.37-7.501-7.5-7.501zm-179 133c3.032 0 5.5 2.467 5.5 5.5s-2.468 5.5-5.5 5.5-5.5-2.467-5.5-5.5 2.468-5.5 5.5-5.5zm-18.5-45h-35v-19h35zm-3-53.5c0-3.033 2.468-5.5 5.5-5.5s5.5 2.467 5.5 5.5-2.468 5.5-5.5 5.5-5.5-2.467-5.5-5.5zm8 77.5v-67.313c4.585-1.126 8-5.26 8-10.187 0-5.79-4.71-10.5-10.5-10.5s-10.5 4.71-10.5 10.5c0 4.927 3.415 9.061 8 10.187v19.313h-35v-56.5c0-1.38 1.12-2.5 2.5-2.5h64.5v8.5c0 4.13 3.37 7.5 7.5 7.5h.859c1.37 0 2.5-1.12 2.5-2.5s-1.13-2.5-2.5-2.5h-.859c-1.38 0-2.5-1.12-2.5-2.5v-14c0-1.38 1.12-2.5 2.5-2.5h8.5v5.5c0 1.381 1.119 2.5 2.5 2.5s2.5-1.119 2.5-2.5v-5.5h11v5.5c0 1.381 1.119 2.5 2.5 2.5s2.5-1.119 2.5-2.5v-5.5h11v5.5c0 1.381 1.119 2.5 2.5 2.5s2.5-1.119 2.5-2.5v-5.5h11v5.5c0 1.381 1.119 2.5 2.5 2.5s2.5-1.119 2.5-2.5v-5.5h11v5.5c0 1.381 1.119 2.5 2.5 2.5s2.5-1.119 2.5-2.5v-5.5h8.5c1.38 0 2.5 1.12 2.5 2.5v14c0 1.38-1.12 2.5-2.5 2.5h-65.141c-1.38 0-2.5 1.12-2.5 2.5s1.12 2.5 2.5 2.5h3.641v35h-11.313c-1.126-4.584-5.26-8-10.187-8-5.79 0-10.5 4.71-10.5 10.5 0 4.927 3.415 9.061 8 10.187v43.313zm43-53.5c0 3.033-2.468 5.5-5.5 5.5s-5.5-2.467-5.5-5.5 2.468-5.5 5.5-5.5 5.5 2.468 5.5 5.5zm-8 133.5h-72.5c-1.38 0-2.5-1.12-2.5-2.5v-24.5h67.313c.929 3.782 3.905 6.758 7.687 7.687zm-3-29.5c0-3.033 2.468-5.5 5.5-5.5s5.5 2.467 5.5 5.5-2.468 5.5-5.5 5.5-5.5-2.467-5.5-5.5zm35 29.5h-27v-19.313c4.585-1.126 8-5.26 8-10.187s-3.415-9.061-8-10.187v-83.627c3.782-.929 6.758-3.905 7.687-7.687h13.813c1.381 0 2.5-1.119 2.5-2.5v-37.5h27v67h-11.313c-1.126-4.584-5.26-8-10.187-8-5.79 0-10.5 4.71-10.5 10.5 0 4.927 3.415 9.061 8 10.187zm-3-101.5c0-3.033 2.468-5.5 5.5-5.5s5.5 2.467 5.5 5.5-2.468 5.5-5.5 5.5-5.5-2.467-5.5-5.5zm131 54.66-22.26 14.84h-10.4c-1.37 0-2.5 1.12-2.5 2.5s1.13 2.5 2.5 2.5h11.16c.5 0 .96-.14 1.39-.42l20.11-13.412v38.332c0 1.38-1.13 2.5-2.5 2.5h-120.5v-36.465l14.535-14.535h36.778c1.126 4.584 5.26 8 10.187 8 5.79 0 10.5-4.71 10.5-10.5s-4.71-10.5-10.5-10.5c-4.927 0-9.061 3.416-10.187 8h-37.813c-.663 0-1.299.263-1.768.732l-11.732 11.733v-47.778c3.782-.929 6.758-3.905 7.687-7.687h27.313v8.5c0 4.136 3.364 7.5 7.5 7.5h.5v5.5c0 1.381 1.119 2.5 2.5 2.5s2.5-1.119 2.5-2.5v-5.5h11v5.5c0 1.381 1.119 2.5 2.5 2.5s2.5-1.119 2.5-2.5v-5.5h11v5.5c0 1.381 1.119 2.5 2.5 2.5s2.5-1.119 2.5-2.5v-5.5h11v5.5c0 1.381 1.119 2.5 2.5 2.5s2.5-1.119 2.5-2.5v-5.5h.5c4.136 0 7.5-3.364 7.5-7.5v-8.5h19zm-67-6.66c0-3.033 2.468-5.5 5.5-5.5s5.5 2.467 5.5 5.5-2.468 5.5-5.5 5.5-5.5-2.467-5.5-5.5zm-16-37v-22c0-1.378 1.121-2.5 2.5-2.5h54c1.379 0 2.5 1.122 2.5 2.5v22c0 1.378-1.121 2.5-2.5 2.5h-54c-1.379 0-2.5-1.121-2.5-2.5zm83-61.5h-51.313c-1.126-4.584-5.26-8-10.187-8-5.79 0-10.5 4.71-10.5 10.5s4.71 10.5 10.5 10.5c4.927 0 9.061-3.416 10.187-8h51.313v43h-19v-8.5c0-4.136-3.364-7.5-7.5-7.5h-.5v-5.5c0-1.381-1.119-2.5-2.5-2.5s-2.5 1.119-2.5 2.5v5.5h-11v-5.5c0-1.381-1.119-2.5-2.5-2.5s-2.5 1.119-2.5 2.5v5.5h-11v-5.5c0-1.381-1.119-2.5-2.5-2.5s-2.5 1.119-2.5 2.5v5.5h-11v-5.5c0-1.381-1.119-2.5-2.5-2.5s-2.5 1.119-2.5 2.5v5.5h-.5c-4.136 0-7.5 3.364-7.5 7.5v8.5h-11v-67h24.5c4.13 0 7.5-3.37 7.5-7.5v-8.5h64.5c1.37 0 2.5 1.12 2.5 2.5zm-56 2.5c0 3.033-2.468 5.5-5.5 5.5s-5.5-2.467-5.5-5.5 2.468-5.5 5.5-5.5 5.5 2.468 5.5 5.5z"/><circle cx="8" cy="145.656" r="2.5"/><circle cx="202.84" cy="196.086" r="2.5"/><path d="m192.84 193.586h-30.653c-1.126-4.584-5.26-8-10.187-8-5.79 0-10.5 4.71-10.5 10.5s4.71 10.5 10.5 10.5c4.927 0 9.061-3.416 10.187-8h30.653c1.38 0 2.5-1.12 2.5-2.5s-1.12-2.5-2.5-2.5zm-40.84 8c-3.032 0-5.5-2.467-5.5-5.5s2.468-5.5 5.5-5.5 5.5 2.467 5.5 5.5-2.468 5.5-5.5 5.5z"/><path d="m176 126.586h32c1.381 0 2.5-1.119 2.5-2.5s-1.119-2.5-2.5-2.5h-32c-1.381 0-2.5 1.119-2.5 2.5s1.119 2.5 2.5 2.5z"/><circle cx="95.859" cy="52.086" r="2.5"/></svg>