<svg enable-background="new 0 0 48 48" viewBox="0 0 48 48" xmlns="http://www.w3.org/2000/svg"><path d="m6 10v28c0 2.2 1.8 4 4 4h28c2.2 0 4-1.8 4-4v-28c0-2.2-1.8-4-4-4h-28c-2.2 0-4 1.8-4 4z" fill="#4caf50"/><g fill="#ffc107"><path d="m6.6 8 6 6c-.4.6-.6 1.3-.6 2 0 2.2 1.8 4 4 4s4-1.8 4-4-1.8-4-4-4c-.7 0-1.4.2-2 .6l-6-6c-.6.3-1.1.8-1.4 1.4zm9.4 6.5c.8 0 1.5.7 1.5 1.5s-.7 1.5-1.5 1.5-1.5-.7-1.5-1.5.7-1.5 1.5-1.5z"/><path d="m41.4 40-6-6c.4-.6.6-1.3.6-2 0-2.2-1.8-4-4-4s-4 1.8-4 4 1.8 4 4 4c.7 0 1.4-.2 2-.6l6 6c.6-.3 1.1-.8 1.4-1.4zm-9.4-6.5c-.8 0-1.5-.7-1.5-1.5s.7-1.5 1.5-1.5 1.5.7 1.5 1.5-.7 1.5-1.5 1.5z"/><path d="m16 36c2.2 0 4-1.8 4-4 0-.7-.2-1.4-.6-2l10.6-10.6c.6.4 1.3.6 2 .6 2.2 0 4-1.8 4-4s-1.8-4-4-4-4 1.8-4 4c0 .7.2 1.4.6 2l-10.6 10.6c-.6-.4-1.3-.6-2-.6-2.2 0-4 1.8-4 4s1.8 4 4 4zm16-21.5c.8 0 1.5.7 1.5 1.5s-.7 1.5-1.5 1.5-1.5-.7-1.5-1.5.7-1.5 1.5-1.5zm-16 16c.8 0 1.5.7 1.5 1.5s-.7 1.5-1.5 1.5-1.5-.7-1.5-1.5.7-1.5 1.5-1.5z"/></g></svg>